<?xml version="1.0" encoding="utf-8"?>
<svg viewBox="0 0 564 99" style="enable-background:new 0 0 564 99;" xmlns="http://www.w3.org/2000/svg">
  <defs>
    <style type="text/css">
	.st0{fill:#16C8C8;}
	.st1{fill:#45D3D3;}
	.st2{fill:#73DEDE;}
</style>
  </defs>
  <g>
    <rect x="552.5" y="22.5" width="11.5" height="54" style="fill: rgb(255, 255, 255);"/>
    <g>
      <rect x="194.9" y="16.5" width="38.9" height="11.6" style="fill: rgb(255, 255, 255);"/>
      <rect x="180" y="43.7" width="53.8" height="11.6" style="fill: rgb(255, 255, 255);"/>
      <rect x="194.9" y="70.8" width="38.9" height="11.6" style="fill: rgb(255, 255, 255);"/>
    </g>
    <polygon points="311.6,24.8 303.4,16.5 278.9,41.3 254.3,16.5 246.2,24.8 273.1,51.9 273.1,82.5 284.6,82.5 284.6,51.9 &#9;" style="fill: rgb(255, 255, 255);"/>
    <path d="M381.6,49.5c0-18.2-14.7-33-32.7-33c-18,0-32.7,14.8-32.7,33s14.7,33,32.7,33C366.9,82.5,381.6,67.7,381.6,49.5z M370.1,49.5c0,11.8-9.5,21.3-21.1,21.3s-21.1-9.6-21.1-21.3s9.5-21.3,21.1-21.3S370.1,37.7,370.1,49.5z" style="fill: rgb(255, 255, 255);"/>
    <path d="M537.1,49.5c0-18.2-14.7-33-32.7-33h-26.9v11.6h26.9c11.7,0,21.1,9.6,21.1,21.3s-9.5,21.3-21.1,21.3h-15.2V53.6h-11.5v28.9 h26.7C522.4,82.5,537.1,67.7,537.1,49.5z" style="fill: rgb(255, 255, 255);"/>
    <path d="M167.6,35.9c0-10.7-8.6-19.4-19.2-19.4H111v11.6h37.4c4.2,0,7.7,3.5,7.7,7.7c0,4.3-3.4,7.8-7.7,7.8h-10.5v11.6h10.5 c4.2,0,7.7,3.5,7.7,7.7c0,4.3-3.4,7.8-7.7,7.8h-25.6V53.6h-11.5v28.9h37.1c10.6,0,19.2-8.7,19.2-19.4c0-5.3-2.1-10.1-5.5-13.6 C165.5,46,167.6,41.2,167.6,35.9z" style="fill: rgb(255, 255, 255);"/>
    <polygon points="405.2,16.6 450.6,62.4 450.6,16.5 462.1,16.5 462.1,74.1 453.9,82.4 408.6,36.6 408.6,82.5 397,82.5 397,24.9 &#9;" style="fill: rgb(255, 255, 255);"/>
    <g>
      <polygon class="st0" points="0,66 33,49.5 0,33 &#9;&#9;"/>
      <rect x="9.7" y="42.7" transform="matrix(0.7071 -0.7071 0.7071 0.7071 -37.0036 42.6655)" class="st1" width="46.7" height="46.7"/>
      <rect x="9.7" y="9.7" transform="matrix(0.7071 -0.7071 0.7071 0.7071 -13.669 33)" class="st2" width="46.7" height="46.7"/>
    </g>
  </g>
</svg>